<mxfile host="app.diagrams.net" modified="2023-05-01T14:14:30.913Z" agent="Mozilla/5.0 (Macintosh; Intel Mac OS X 10_15_7) AppleWebKit/605.1.15 (KHTML, like Gecko) Version/16.3 Safari/605.1.15" etag="dSxE1sOQg6z5NejLxDVT" version="21.2.3" type="device">
  <diagram name="Seite-1" id="z6mtWC5CtQHSCUCwu6QR">
    <mxGraphModel dx="1026" dy="584" grid="1" gridSize="10" guides="1" tooltips="1" connect="1" arrows="1" fold="1" page="1" pageScale="1" pageWidth="827" pageHeight="1169" math="0" shadow="0">
      <root>
        <mxCell id="0" />
        <mxCell id="1" parent="0" />
        <mxCell id="02xdqn8SYUNmvWep1uCd-1" value="Benutzer" style="shape=umlActor;verticalLabelPosition=bottom;verticalAlign=top;html=1;outlineConnect=0;" vertex="1" parent="1">
          <mxGeometry x="110" y="210" width="80" height="140" as="geometry" />
        </mxCell>
        <mxCell id="02xdqn8SYUNmvWep1uCd-4" value="&amp;lt;&amp;lt;System&amp;gt;&amp;gt;&lt;br&gt;Umwelbelastungspunkte" style="rounded=0;whiteSpace=wrap;html=1;" vertex="1" parent="1">
          <mxGeometry x="290" y="330" width="230" height="110" as="geometry" />
        </mxCell>
        <mxCell id="02xdqn8SYUNmvWep1uCd-5" value="" style="endArrow=none;html=1;rounded=0;exitX=0;exitY=0;exitDx=0;exitDy=0;" edge="1" parent="1" source="02xdqn8SYUNmvWep1uCd-4" target="02xdqn8SYUNmvWep1uCd-1">
          <mxGeometry width="50" height="50" relative="1" as="geometry">
            <mxPoint x="350" y="330" as="sourcePoint" />
            <mxPoint x="400" y="280" as="targetPoint" />
          </mxGeometry>
        </mxCell>
        <mxCell id="02xdqn8SYUNmvWep1uCd-6" value="Informationsbeschaffung&lt;br&gt;Umweltbelastungspunkte" style="rounded=0;whiteSpace=wrap;html=1;" vertex="1" parent="1">
          <mxGeometry x="570" y="200" width="170" height="90" as="geometry" />
        </mxCell>
        <mxCell id="02xdqn8SYUNmvWep1uCd-7" value="" style="endArrow=none;html=1;rounded=0;entryX=0;entryY=1;entryDx=0;entryDy=0;exitX=1;exitY=0;exitDx=0;exitDy=0;" edge="1" parent="1" source="02xdqn8SYUNmvWep1uCd-4" target="02xdqn8SYUNmvWep1uCd-6">
          <mxGeometry width="50" height="50" relative="1" as="geometry">
            <mxPoint x="350" y="330" as="sourcePoint" />
            <mxPoint x="400" y="280" as="targetPoint" />
          </mxGeometry>
        </mxCell>
      </root>
    </mxGraphModel>
  </diagram>
</mxfile>
